<svg width="124" height="37" viewBox="0 0 124 37" fill="none" xmlns="http://www.w3.org/2000/svg">
<path fill-rule="evenodd" clip-rule="evenodd" d="M106.803 22.1864C102.088 22.1864 100.16 18.5346 100.16 14.4619C100.16 10.3218 102.088 6.66671 106.803 6.66671C111.505 6.66671 113.439 10.3218 113.439 14.4619C113.439 18.5346 111.505 22.1864 106.803 22.1864ZM73.3099 22.1864C68.5946 22.1864 66.6711 18.5346 66.6711 14.4619C66.6711 10.3218 68.5946 6.66671 73.3099 6.66671C78.01 6.66671 79.9435 10.3218 79.9435 14.4619C79.9435 18.5346 78.01 22.1864 73.3099 22.1864ZM40.9854 22.1864C36.2769 22.1864 34.3515 18.5346 34.3515 14.4619C34.3515 10.3218 36.2769 6.66671 40.9854 6.66671C45.6969 6.66671 47.6236 10.3218 47.6236 14.4619C47.6236 18.5346 45.6969 22.1864 40.9854 22.1864ZM106.803 0C98.4292 0 91.7888 3.89405 90.0484 10.7641C88.3196 3.89405 81.6701 0 73.3099 0C65.6994 0 59.5105 3.21115 57.1473 8.96304C54.7795 3.21115 48.5872 0 40.9854 0C31.2257 0 23.7941 5.29577 23.7941 14.4619C23.7941 16.7636 24.2713 18.814 25.143 20.608C23.4414 21.406 21.0851 21.8711 18.9544 21.8711C14.5288 21.8711 10.5543 19.016 10.5543 14.6123C10.5543 9.84578 13.9848 6.66671 18.4104 6.66671C19.77 6.66671 20.8598 6.9493 22.0775 7.46284C23.0102 5.30508 24.39 3.38468 26.181 1.79723C23.6932 0.684185 20.8695 0 17.1931 0C7.43529 0 0 5.29577 0 14.4619C0 23.5593 7.43529 28.8634 17.1931 28.8634C21.9566 28.8634 26.1082 27.6689 29.4243 25.6144C32.823 27.7857 36.3541 28.8634 40.9854 28.8634C48.5872 28.8634 54.7795 25.6398 57.1473 19.9148C59.5105 25.6398 65.6994 28.8634 73.3099 28.8634C81.0761 28.8634 87.3681 25.4983 89.6135 19.536V36.2124H100.108V27.9223C102.155 28.5375 104.409 28.8634 106.803 28.8634C116.562 28.8634 124 23.5593 124 14.4619C124 5.29577 116.562 0 106.803 0Z" fill="#195071"/>
</svg>
